<svg width="235" height="79" viewBox="0 0 235 79" fill="none" xmlns="http://www.w3.org/2000/svg">
<path fill-rule="evenodd" clip-rule="evenodd" d="M29.5668 0.259155H54.0405H58.5539H199V78.741H29.5668V27.8377V24.7043V0.259155Z" fill="#0066E0"/>
<path d="M30.0734 0L64 19.75V59.25L30.0734 79L0 59.25V39.5V19.75L30.0734 0Z" fill="#0066E0"/>
<path d="M35.24 46V31.6H37.84V46H35.24ZM37.12 38.52L43.94 31.6H47.44L40.34 38.52H37.12ZM44.26 46L37.08 38.52H40.34L47.84 46H44.26ZM49.5783 46V35.8H52.0383V38.2H52.0983V46H49.5783ZM56.7383 46V39.56C56.7383 38.9333 56.5783 38.46 56.2583 38.14C55.9383 37.82 55.4716 37.66 54.8583 37.66C54.3249 37.66 53.8449 37.78 53.4183 38.02C53.0049 38.26 52.6783 38.5933 52.4383 39.02C52.2116 39.4467 52.0983 39.94 52.0983 40.5L51.8383 38.06C52.1849 37.3133 52.6916 36.72 53.3583 36.28C54.0249 35.8267 54.8249 35.6 55.7583 35.6C56.8649 35.6 57.7249 35.9133 58.3383 36.54C58.9649 37.1667 59.2783 38 59.2783 39.04V46H56.7383ZM66.4644 46.2C65.3844 46.2 64.431 45.9733 63.6044 45.52C62.791 45.0667 62.1577 44.44 61.7044 43.64C61.251 42.8267 61.0244 41.9 61.0244 40.86C61.0244 39.82 61.251 38.9067 61.7044 38.12C62.1577 37.3333 62.791 36.72 63.6044 36.28C64.431 35.8267 65.3844 35.6 66.4644 35.6C67.5577 35.6 68.511 35.8267 69.3244 36.28C70.1377 36.72 70.771 37.3333 71.2244 38.12C71.6777 38.9067 71.9044 39.82 71.9044 40.86C71.9044 41.9 71.671 42.8267 71.2044 43.64C70.751 44.44 70.1177 45.0667 69.3044 45.52C68.491 45.9733 67.5444 46.2 66.4644 46.2ZM66.4644 44.18C66.9977 44.18 67.4777 44.0467 67.9044 43.78C68.331 43.5 68.6644 43.1133 68.9044 42.62C69.1444 42.1133 69.2644 41.52 69.2644 40.84C69.2644 39.84 68.9977 39.0533 68.4644 38.48C67.9444 37.9067 67.2777 37.62 66.4644 37.62C65.651 37.62 64.9777 37.9067 64.4444 38.48C63.911 39.0533 63.6444 39.84 63.6444 40.84C63.6444 41.52 63.7644 42.1133 64.0044 42.62C64.2577 43.1133 64.591 43.5 65.0044 43.78C65.431 44.0467 65.9177 44.18 66.4644 44.18ZM75.6041 46L72.4841 35.8H75.1241L76.9641 43.46H76.7841L79.0441 35.8H81.3441L83.6441 43.46H83.4441L85.2641 35.8H87.8441L84.7241 46H82.3641L80.0641 38.42H80.2641L77.9641 46H75.6041ZM93.2673 46V31.6H97.3073L101.707 45.48H100.287L104.687 31.6H108.747V46H106.187V32.46H106.607L102.327 46H99.5473L95.3073 32.58H95.7073V46H93.2673ZM115.976 46.2C114.896 46.2 113.943 45.9733 113.116 45.52C112.303 45.0667 111.669 44.44 111.216 43.64C110.763 42.8267 110.536 41.9 110.536 40.86C110.536 39.82 110.763 38.9067 111.216 38.12C111.669 37.3333 112.303 36.72 113.116 36.28C113.943 35.8267 114.896 35.6 115.976 35.6C117.069 35.6 118.023 35.8267 118.836 36.28C119.649 36.72 120.283 37.3333 120.736 38.12C121.189 38.9067 121.416 39.82 121.416 40.86C121.416 41.9 121.183 42.8267 120.716 43.64C120.263 44.44 119.629 45.0667 118.816 45.52C118.003 45.9733 117.056 46.2 115.976 46.2ZM115.976 44.18C116.509 44.18 116.989 44.0467 117.416 43.78C117.843 43.5 118.176 43.1133 118.416 42.62C118.656 42.1133 118.776 41.52 118.776 40.84C118.776 39.84 118.509 39.0533 117.976 38.48C117.456 37.9067 116.789 37.62 115.976 37.62C115.163 37.62 114.489 37.9067 113.956 38.48C113.423 39.0533 113.156 39.84 113.156 40.84C113.156 41.52 113.276 42.1133 113.516 42.62C113.769 43.1133 114.103 43.5 114.516 43.78C114.943 44.0467 115.429 44.18 115.976 44.18ZM123.27 46V35.8H125.73V38.26H125.79V46H123.27ZM125.79 40.68L125.53 38.26C125.77 37.3933 126.176 36.7333 126.75 36.28C127.323 35.8267 128.01 35.6 128.81 35.6C129.09 35.6 129.29 35.6267 129.41 35.68V38.06C129.343 38.0333 129.25 38.02 129.13 38.02C129.01 38.0067 128.863 38 128.69 38C127.716 38 126.99 38.2133 126.51 38.64C126.03 39.0667 125.79 39.7467 125.79 40.68ZM135.428 46.2C134.348 46.2 133.401 45.9733 132.588 45.52C131.788 45.0667 131.161 44.44 130.708 43.64C130.268 42.84 130.048 41.92 130.048 40.88C130.048 39.84 130.268 38.9267 130.708 38.14C131.161 37.34 131.788 36.72 132.588 36.28C133.388 35.8267 134.321 35.6 135.388 35.6C136.401 35.6 137.281 35.8133 138.028 36.24C138.774 36.6533 139.354 37.24 139.768 38C140.181 38.76 140.388 39.6467 140.388 40.66C140.388 40.8467 140.381 41.02 140.368 41.18C140.354 41.34 140.334 41.5 140.308 41.66H131.608V39.9H138.368L137.848 40.38C137.848 39.42 137.628 38.7 137.188 38.22C136.748 37.74 136.134 37.5 135.348 37.5C134.494 37.5 133.814 37.7933 133.308 38.38C132.814 38.9667 132.568 39.8133 132.568 40.92C132.568 42.0133 132.814 42.8533 133.308 43.44C133.814 44.0133 134.528 44.3 135.448 44.3C135.981 44.3 136.448 44.2 136.848 44C137.248 43.8 137.541 43.4933 137.728 43.08H140.108C139.774 44.04 139.208 44.8 138.408 45.36C137.621 45.92 136.628 46.2 135.428 46.2Z" fill="#F8FBFF"/>
<path d="M199 0L234.507 19.75V59.25L199 79L163.493 59.25V19.75L199 0Z" fill="#FFE66D"/>
<path d="M190.083 32.0834H205.917M205.917 32.0834V47.9167M205.917 32.0834L190.083 47.9167" stroke="#03083A" stroke-width="2" stroke-linecap="round" stroke-linejoin="round"/>
</svg>
