<?xml version="1.0" encoding="UTF-8"?>
<svg id="Layer_1" data-name="Layer 1" xmlns="http://www.w3.org/2000/svg" xmlns:xlink="http://www.w3.org/1999/xlink" viewBox="0 0 422.3 383.12">
  <defs>
    <style>
      .cls-1 {
        stroke: url(#linear-gradient-5);
      }

      .cls-1, .cls-2, .cls-3, .cls-4, .cls-5 {
        fill: none;
        stroke-miterlimit: 10;
        stroke-width: 2px;
      }

      .cls-2 {
        stroke: url(#linear-gradient-4);
      }

      .cls-3 {
        stroke: url(#linear-gradient-3);
      }

      .cls-4 {
        stroke: url(#linear-gradient-2);
      }

      .cls-5 {
        stroke: url(#linear-gradient);
      }
    </style>
    <linearGradient id="linear-gradient" x1="229.35" y1="186.29" x2="422.22" y2="186.29" gradientUnits="userSpaceOnUse">
      <stop offset="0" stop-color="#f0b100"/>
      <stop offset=".04" stop-color="#f0b100"/>
      <stop offset="1" stop-color="#f0b100"/>
    </linearGradient>
    <linearGradient id="linear-gradient-2" x1="167.84" y1="382.75" x2="310.33" y2="382.75" xlink:href="#linear-gradient"/>
    <linearGradient id="linear-gradient-3" x1="195.02" y1="299.05" x2="283.16" y2="299.05" xlink:href="#linear-gradient"/>
    <linearGradient id="linear-gradient-4" x1="324.78" y1="382.75" x2="467.27" y2="382.75" xlink:href="#linear-gradient"/>
    <linearGradient id="linear-gradient-5" x1="351.96" y1="299.05" x2="440.1" y2="299.05" xlink:href="#linear-gradient"/>
  </defs>
  <path class="cls-5" d="M403.29,114.7h-155.01c-9.9,0-17.93,8.03-17.93,17.93v92.06c0,9.9,8.03,17.93,17.93,17.93h46.17c4.77,0,9.32,1.89,12.68,5.25l4.76,4.76c7,7,18.37,7,25.37,0l4.76-4.76c3.36-3.36,7.92-5.25,12.67-5.25h48.59c9.9,0,17.93-8.03,17.93-17.93v-92.06c0-9.9-8.03-17.93-17.93-17.93ZM286.62,190.97c-6.99,0-12.66-5.66-12.66-12.65s5.66-12.66,12.66-12.66,12.65,5.66,12.65,12.66-5.66,12.65-12.65,12.65ZM325.79,190.97c-6.99,0-12.66-5.66-12.66-12.65s5.66-12.66,12.66-12.66,12.65,5.66,12.65,12.66-5.66,12.65-12.65,12.65ZM364.95,190.97c-6.98,0-12.65-5.66-12.65-12.65s5.66-12.66,12.65-12.66,12.66,5.66,12.66,12.66-5.66,12.65-12.66,12.65Z"/>
  <path class="cls-4" d="M287.42,420.19h-96.67c-15.76,0-26.45-16.24-19.99-30.62,11.7-26.08,37.9-44.25,68.33-44.25s56.63,18.17,68.33,44.25c6.45,14.38-4.23,30.62-19.99,30.62Z"/>
  <circle class="cls-3" cx="239.09" cy="299.05" r="43.07"/>
  <path class="cls-2" d="M444.36,420.19h-96.67c-15.76,0-26.45-16.24-19.99-30.62,11.7-26.08,37.9-44.25,68.33-44.25s56.63,18.17,68.33,44.25c6.45,14.38-4.23,30.62-19.99,30.62Z"/>
  <circle class="cls-1" cx="396.03" cy="299.05" r="43.07"/>
</svg>