<?xml version="1.0" encoding="UTF-8"?>
<svg id="Layer_2" data-name="Layer 2" xmlns="http://www.w3.org/2000/svg" xmlns:xlink="http://www.w3.org/1999/xlink" viewBox="0 0 1423.27 299.46">
  <defs>
    <style>
      .cls-1 {
        fill: url(#linear-gradient-2);
      }

      .cls-2 {
        fill: url(#linear-gradient-4);
      }

      .cls-3 {
        fill: url(#linear-gradient-3);
      }

      .cls-4 {
        fill: url(#linear-gradient-5);
      }

      .cls-5 {
        fill: url(#linear-gradient-8);
      }

      .cls-6 {
        fill: url(#linear-gradient-7);
      }

      .cls-7 {
        fill: url(#linear-gradient-9);
      }

      .cls-8 {
        fill: url(#linear-gradient-6);
      }

      .cls-9 {
        fill: url(#linear-gradient);
      }
    </style>
    <linearGradient id="linear-gradient" x1="989.49" y1="209.87" x2="989.49" y2="0" gradientUnits="userSpaceOnUse">
      <stop offset="0" stop-color="#f0b100"/>
      <stop offset=".12" stop-color="#f0b100" stop-opacity=".77"/>
      <stop offset=".23" stop-color="#f0b100" stop-opacity=".57"/>
      <stop offset=".35" stop-color="#f0b100" stop-opacity=".39"/>
      <stop offset=".48" stop-color="#f0b100" stop-opacity=".25"/>
      <stop offset=".6" stop-color="#f0b100" stop-opacity=".14"/>
      <stop offset=".73" stop-color="#f0b100" stop-opacity=".06"/>
      <stop offset=".86" stop-color="#f0b100" stop-opacity=".02"/>
      <stop offset="1" stop-color="#f0b100" stop-opacity="0"/>
    </linearGradient>
    <linearGradient id="linear-gradient-2" y1="296.62" y2="147.71" xlink:href="#linear-gradient"/>
    <linearGradient id="linear-gradient-3" x1="85.13" y1="296.82" x2="85.13" y2="91.56" xlink:href="#linear-gradient"/>
    <linearGradient id="linear-gradient-4" x1="287.16" y1="299.46" x2="287.16" y2="131.26" xlink:href="#linear-gradient"/>
    <linearGradient id="linear-gradient-5" x1="449.63" y1="296.82" x2="449.63" y2="131.55" xlink:href="#linear-gradient"/>
    <linearGradient id="linear-gradient-6" x1="612.83" y1="296.82" x2="612.83" y2="91.56" xlink:href="#linear-gradient"/>
    <linearGradient id="linear-gradient-7" x1="817.21" y1="299.46" x2="817.21" y2="131.26" xlink:href="#linear-gradient"/>
    <linearGradient id="linear-gradient-8" x1="1157" y1="299.46" x2="1157" y2="131.26" xlink:href="#linear-gradient"/>
    <linearGradient id="linear-gradient-9" x1="1342.26" y1="299.46" x2="1342.26" y2="131.26" xlink:href="#linear-gradient"/>
  </defs>
  <g id="Layer_1-2" data-name="Layer 1">
    <g>
      <g>
        <path class="cls-9" d="M989.49,0c-31.66,0-57.4,25.75-57.4,57.42v95.05c0,31.65,25.74,57.4,57.4,57.4s57.4-25.75,57.4-57.4V57.42c0-31.66-25.75-57.42-57.4-57.42ZM1037.41,152.47c0,26.43-21.49,47.92-47.92,47.92s-45.99-19.6-47.8-44.4h36.49c2.63,0,4.74-2.12,4.74-4.74s-2.11-4.74-4.74-4.74h-36.62v-17.5h36.62c2.63,0,4.74-2.12,4.74-4.74s-2.11-4.74-4.74-4.74h-36.62v-17.49h36.62c2.63,0,4.74-2.12,4.74-4.74s-2.11-4.74-4.74-4.74h-36.62v-17.5h36.62c2.63,0,4.74-2.12,4.74-4.74s-2.11-4.74-4.74-4.74h-36.62v-8.15c0-26.43,21.51-47.93,47.93-47.93s47.92,21.51,47.92,47.93v95.05Z"/>
        <path class="cls-1" d="M994.23,235.95v51.19h36.38c2.62,0,4.74,2.12,4.74,4.74s-2.12,4.74-4.74,4.74h-82.24c-2.63,0-4.74-2.12-4.74-4.74s2.11-4.74,4.74-4.74h36.38v-51.19c-43.9-2.47-78.88-38.98-78.88-83.5,0-2.62,2.12-4.74,4.74-4.74s4.74,2.12,4.74,4.74c0,40.89,33.27,74.14,74.14,74.14s74.14-33.26,74.14-74.14c0-2.62,2.12-4.74,4.74-4.74s4.74,2.12,4.74,4.74c0,44.51-34.98,81.02-78.88,83.5Z"/>
      </g>
      <g>
        <path class="cls-3" d="M170.27,91.56v205.26h-41.17v-87.34H41.17v87.34H0V91.56h41.17v84.4h87.93v-84.4h41.17Z"/>
        <path class="cls-2" d="M367,227.71h-119.1c.98,11.76,5.1,20.98,12.35,27.64,7.25,6.67,16.17,10,26.76,10,15.29,0,26.17-6.57,32.64-19.7h44.4c-4.7,15.69-13.72,28.58-27.05,38.67-13.33,10.1-29.7,15.14-49.11,15.14-15.69,0-29.75-3.48-42.2-10.44-12.45-6.96-22.16-16.81-29.11-29.55-6.96-12.74-10.44-27.44-10.44-44.11s3.43-31.66,10.29-44.4c6.86-12.74,16.47-22.54,28.82-29.41,12.35-6.86,26.56-10.29,42.64-10.29s29.36,3.34,41.61,10c12.25,6.67,21.76,16.13,28.52,28.38,6.76,12.25,10.15,26.32,10.15,42.2,0,5.88-.39,11.17-1.18,15.88ZM325.53,200.07c-.2-10.59-4.02-19.06-11.47-25.44-7.45-6.37-16.57-9.56-27.35-9.56-10.2,0-18.77,3.09-25.73,9.26-6.96,6.17-11.23,14.75-12.79,25.73h77.34Z"/>
        <path class="cls-4" d="M465.95,138.9c8.53-4.9,18.28-7.35,29.26-7.35v43.23h-10.88c-12.94,0-22.69,3.04-29.26,9.12-6.57,6.08-9.85,16.67-9.85,31.76v81.16h-41.17v-162.91h41.17v25.29c5.29-8.62,12.2-15.39,20.73-20.29Z"/>
        <path class="cls-8" d="M713.11,91.56l-75.28,205.26h-49.99l-75.28-205.26h44.11l56.46,163.21,56.17-163.21h43.82Z"/>
        <path class="cls-6" d="M773.69,289.02c-12.55-6.96-22.4-16.81-29.55-29.55-7.16-12.74-10.73-27.44-10.73-44.11s3.68-31.36,11.03-44.11c7.35-12.74,17.4-22.59,30.14-29.56,12.74-6.96,26.95-10.44,42.64-10.44s29.89,3.48,42.64,10.44c12.74,6.96,22.79,16.81,30.14,29.56,7.35,12.75,11.03,27.45,11.03,44.11s-3.78,31.37-11.32,44.11c-7.55,12.75-17.75,22.6-30.58,29.55-12.84,6.96-27.2,10.44-43.08,10.44s-29.8-3.48-42.35-10.44ZM837.06,258.15c6.57-3.62,11.81-9.07,15.73-16.32,3.92-7.25,5.88-16.07,5.88-26.47,0-15.48-4.07-27.39-12.2-35.73-8.14-8.33-18.09-12.5-29.85-12.5s-21.61,4.17-29.55,12.5c-7.94,8.34-11.91,20.25-11.91,35.73s3.87,27.4,11.62,35.73c7.74,8.34,17.5,12.5,29.26,12.5,7.45,0,14.46-1.81,21.03-5.44Z"/>
        <path class="cls-5" d="M1088.63,171.1c6.86-12.65,16.37-22.45,28.52-29.41,12.15-6.96,26.07-10.44,41.76-10.44,20.19,0,36.91,5.05,50.14,15.14,13.23,10.1,22.1,24.26,26.61,42.49h-44.4c-2.35-7.06-6.32-12.6-11.91-16.62-5.59-4.02-12.5-6.03-20.73-6.03-11.76,0-21.08,4.27-27.94,12.79-6.86,8.53-10.29,20.64-10.29,36.32s3.43,27.49,10.29,36.02c6.86,8.53,16.18,12.79,27.94,12.79,16.66,0,27.54-7.45,32.64-22.35h44.4c-4.51,17.64-13.43,31.66-26.76,42.05-13.33,10.39-30,15.59-49.99,15.59-15.69,0-29.61-3.48-41.76-10.44-12.16-6.96-21.66-16.76-28.52-29.41-6.87-12.65-10.29-27.39-10.29-44.26s3.43-31.61,10.29-44.26Z"/>
        <path class="cls-7" d="M1422.1,227.71h-119.1c.98,11.76,5.09,20.98,12.35,27.64,7.25,6.67,16.17,10,26.76,10,15.29,0,26.17-6.57,32.64-19.7h44.4c-4.7,15.69-13.72,28.58-27.05,38.67-13.33,10.1-29.7,15.14-49.11,15.14-15.69,0-29.75-3.48-42.2-10.44-12.45-6.96-22.16-16.81-29.11-29.55-6.96-12.74-10.44-27.44-10.44-44.11s3.43-31.66,10.29-44.4c6.86-12.74,16.47-22.54,28.82-29.41,12.35-6.86,26.56-10.29,42.64-10.29s29.36,3.34,41.61,10c12.25,6.67,21.76,16.13,28.52,28.38,6.76,12.25,10.15,26.32,10.15,42.2,0,5.88-.39,11.17-1.18,15.88ZM1380.63,200.07c-.2-10.59-4.02-19.06-11.47-25.44-7.45-6.37-16.57-9.56-27.35-9.56-10.2,0-18.78,3.09-25.73,9.26-6.96,6.17-11.22,14.75-12.79,25.73h77.34Z"/>
      </g>
    </g>
  </g>
</svg>