<?xml version="1.0" encoding="UTF-8"?>
<svg id="Layer_2" data-name="Layer 2" xmlns="http://www.w3.org/2000/svg" xmlns:xlink="http://www.w3.org/1999/xlink" viewBox="0 0 1423.77 299.96">
  <defs>
    <style>
      .cls-1 {
        fill: url(#linear-gradient-2);
      }

      .cls-2 {
        opacity: .14;
      }

      .cls-3 {
        fill: url(#linear-gradient-4);
      }

      .cls-4 {
        fill: url(#linear-gradient-3);
      }

      .cls-5 {
        fill: url(#linear-gradient-5);
      }

      .cls-6 {
        fill: url(#linear-gradient-8);
      }

      .cls-7 {
        fill: url(#linear-gradient-7);
      }

      .cls-8 {
        fill: url(#linear-gradient-9);
      }

      .cls-9 {
        fill: url(#linear-gradient-6);
      }

      .cls-10 {
        fill: url(#linear-gradient);
      }
    </style>
    <linearGradient id="linear-gradient" x1="989.74" y1="210.37" x2="989.74" y2="0" gradientUnits="userSpaceOnUse">
      <stop offset="0" stop-color="#fff"/>
      <stop offset="1" stop-color="#fff" stop-opacity="0"/>
    </linearGradient>
    <linearGradient id="linear-gradient-2" x1="989.74" y1="297.12" x2="989.74" y2="147.71" xlink:href="#linear-gradient"/>
    <linearGradient id="linear-gradient-3" x1="85.38" y1="297.32" x2="85.38" y2="91.56" xlink:href="#linear-gradient"/>
    <linearGradient id="linear-gradient-4" x1="287.41" y1="299.96" x2="287.41" y2="131.26" xlink:href="#linear-gradient"/>
    <linearGradient id="linear-gradient-5" x1="449.88" y1="297.32" x2="449.88" y2="131.55" xlink:href="#linear-gradient"/>
    <linearGradient id="linear-gradient-6" x1="613.08" y1="297.32" x2="613.08" y2="91.56" xlink:href="#linear-gradient"/>
    <linearGradient id="linear-gradient-7" x1="817.46" y1="299.96" x2="817.46" y2="131.26" xlink:href="#linear-gradient"/>
    <linearGradient id="linear-gradient-8" x1="1157.28" y1="299.96" x2="1157.28" y2="131.26" xlink:href="#linear-gradient"/>
    <linearGradient id="linear-gradient-9" x1="1342.51" y1="299.96" x2="1342.51" y2="131.26" xlink:href="#linear-gradient"/>
  </defs>
  <g id="Layer_1-2" data-name="Layer 1">
    <g class="cls-2">
      <g>
        <path class="cls-10" d="M989.74,210.37c-31.79,0-57.65-25.86-57.65-57.65V57.67c0-31.8,25.86-57.67,57.65-57.67s57.65,25.87,57.65,57.67v95.05c0,31.79-25.86,57.65-57.65,57.65ZM989.74.5c-31.51,0-57.15,25.65-57.15,57.17v95.05c0,31.52,25.64,57.15,57.15,57.15s57.15-25.64,57.15-57.15V57.67c0-31.52-25.64-57.17-57.15-57.17ZM989.74,200.89c-25.12,0-46.22-19.6-48.05-44.63l-.02-.27h36.76c2.48,0,4.49-2.01,4.49-4.49s-2.01-4.49-4.49-4.49h-36.87v-18h36.87c2.48,0,4.49-2.02,4.49-4.49s-2.01-4.49-4.49-4.49h-36.87v-17.99h36.87c2.48,0,4.49-2.02,4.49-4.49s-2.01-4.49-4.49-4.49h-36.87v-18h36.87c2.48,0,4.49-2.01,4.49-4.49s-2.01-4.49-4.49-4.49h-36.87v-8.4c0-26.57,21.62-48.18,48.18-48.18s48.17,21.62,48.17,48.18v95.05c0,26.56-21.61,48.17-48.17,48.17ZM942.21,156.49c1.94,24.64,22.77,43.9,47.53,43.9,26.29,0,47.67-21.39,47.67-47.67V57.67c0-26.29-21.38-47.68-47.67-47.68s-47.68,21.39-47.68,47.68v7.9h36.37c2.75,0,4.99,2.24,4.99,4.99s-2.24,4.99-4.99,4.99h-36.37v17h36.37c2.75,0,4.99,2.24,4.99,4.99s-2.24,4.99-4.99,4.99h-36.37v16.99h36.37c2.75,0,4.99,2.24,4.99,4.99s-2.24,4.99-4.99,4.99h-36.37v17h36.37c2.75,0,4.99,2.24,4.99,4.99s-2.24,4.99-4.99,4.99h-36.22Z"/>
        <path class="cls-1" d="M1030.86,297.12h-82.24c-2.75,0-4.99-2.24-4.99-4.99s2.24-4.99,4.99-4.99h36.13v-50.7c-44.25-2.62-78.88-39.35-78.88-83.73,0-2.75,2.24-4.99,4.99-4.99s4.99,2.24,4.99,4.99c0,40.74,33.15,73.89,73.89,73.89s73.89-33.15,73.89-73.89c0-2.75,2.24-4.99,4.99-4.99s4.99,2.24,4.99,4.99c0,44.38-34.63,81.11-78.88,83.73v50.7h36.13c2.75,0,4.99,2.24,4.99,4.99s-2.24,4.99-4.99,4.99ZM948.62,287.64c-2.48,0-4.49,2.01-4.49,4.49s2.01,4.49,4.49,4.49h82.24c2.48,0,4.49-2.02,4.49-4.49s-2.01-4.49-4.49-4.49h-36.63v-51.67h.24c44.1-2.5,78.65-39.06,78.65-83.26,0-2.48-2.01-4.49-4.49-4.49s-4.49,2.01-4.49,4.49c0,41.02-33.37,74.39-74.39,74.39s-74.39-33.37-74.39-74.39c0-2.48-2.01-4.49-4.49-4.49s-4.49,2.01-4.49,4.49c0,44.19,34.55,80.76,78.65,83.25h.24v51.69h-36.63Z"/>
      </g>
      <g>
        <path class="cls-4" d="M170.77,297.32h-41.67v-87.34H41.67v87.34H0V91.56h41.67v84.4h87.43v-84.4h41.67v205.76ZM129.6,296.82h40.67V92.06h-40.67v84.4H41.17v-84.4H.5v204.76h40.67v-87.34h88.43v87.34Z"/>
        <path class="cls-3" d="M288.14,299.96c-15.66,0-29.9-3.52-42.32-10.47-12.43-6.95-22.26-16.92-29.21-29.65-6.95-12.72-10.47-27.6-10.47-44.23s3.47-31.81,10.32-44.52c6.85-12.72,16.58-22.65,28.92-29.51,12.33-6.85,26.72-10.32,42.76-10.32s29.49,3.37,41.73,10.03c12.24,6.66,21.87,16.24,28.62,28.48,6.75,12.23,10.18,26.47,10.18,42.32,0,5.85-.4,11.21-1.18,15.92l-.03.21h-119.04c1.01,11.52,5.13,20.67,12.25,27.21,7.17,6.59,16.11,9.93,26.59,9.93,15.12,0,26.02-6.58,32.42-19.56l.07-.14h44.9l-.1.32c-4.7,15.66-13.83,28.71-27.14,38.8-13.31,10.08-29.88,15.19-49.26,15.19ZM288.14,131.76c-15.96,0-30.26,3.45-42.52,10.26-12.25,6.81-21.92,16.67-28.72,29.31-6.81,12.64-10.26,27.54-10.26,44.29s3.5,31.35,10.41,43.99c6.9,12.65,16.67,22.56,29.02,29.46,12.35,6.91,26.5,10.41,42.08,10.41,19.26,0,35.74-5.08,48.96-15.09,13.14-9.95,22.17-22.81,26.87-38.22h-43.91c-6.49,13.07-17.53,19.7-32.8,19.7-10.61,0-19.67-3.39-26.93-10.07-7.27-6.67-11.45-16.03-12.43-27.81l-.02-.27h119.16c.76-4.64,1.14-9.89,1.14-15.63,0-15.76-3.4-29.92-10.11-42.08-6.71-12.15-16.27-21.66-28.43-28.28-12.17-6.61-26.12-9.97-41.49-9.97ZM326.04,200.57h-77.88l.04-.29c1.57-10.99,5.9-19.7,12.87-25.88,6.97-6.19,15.68-9.33,25.9-9.33,10.79,0,20.04,3.24,27.51,9.62,7.47,6.39,11.36,15.01,11.56,25.62v.25ZM248.73,200.07h76.8c-.25-10.34-4.08-18.75-11.38-25-7.37-6.3-16.52-9.5-27.19-9.5-10.09,0-18.69,3.1-25.56,9.2-6.82,6.05-11.08,14.56-12.67,25.29Z"/>
        <path class="cls-5" d="M445.71,297.32h-41.67v-163.41h41.67v24.67c5.23-8.27,12.08-14.88,20.36-19.63h0c8.53-4.9,18.42-7.39,29.38-7.39h.25v43.73h-11.13c-12.81,0-22.6,3.04-29.09,9.05-6.48,6-9.77,16.62-9.77,31.58v81.41ZM404.55,296.82h40.67v-80.91c0-15.1,3.34-25.85,9.93-31.95,6.59-6.09,16.49-9.18,29.43-9.18h10.63v-42.73c-10.78.04-20.49,2.5-28.89,7.32h0c-8.45,4.86-15.4,11.66-20.64,20.2l-.46.75v-25.92h-40.67v162.41Z"/>
        <path class="cls-9" d="M638.25,297.32h-50.34l-.06-.16-75.41-205.6h44.65l.06.17,56.22,162.52,55.99-162.69h44.35l-.12.34-75.34,205.42ZM588.26,296.82h49.64l75.1-204.76h-43.28l-56.34,163.72-56.64-163.72h-43.57l75.1,204.76Z"/>
        <path class="cls-7" d="M816.28,299.96c-15.66,0-29.95-3.52-42.47-10.47-12.53-6.94-22.5-16.92-29.65-29.65-7.14-12.71-10.77-27.6-10.77-44.23s3.72-31.51,11.06-44.23c7.34-12.73,17.52-22.7,30.24-29.65,12.72-6.95,27.11-10.47,42.76-10.47s30.03,3.52,42.76,10.47c12.73,6.95,22.9,16.93,30.24,29.65,7.34,12.72,11.06,27.61,11.06,44.23s-3.82,31.51-11.36,44.24c-7.54,12.73-17.86,22.7-30.68,29.65-12.82,6.95-27.35,10.47-43.2,10.47ZM817.46,131.76c-15.56,0-29.87,3.5-42.52,10.41-12.64,6.9-22.75,16.82-30.05,29.46-7.29,12.65-10.99,27.45-10.99,43.98s3.6,31.35,10.7,43.99c7.1,12.65,17.01,22.56,29.46,29.46h0c12.44,6.91,26.65,10.41,42.22,10.41s30.22-3.5,42.96-10.41c12.74-6.9,23-16.81,30.49-29.46,7.49-12.65,11.29-27.45,11.29-43.98s-3.7-31.34-11-43.98c-7.29-12.64-17.4-22.55-30.04-29.46-12.66-6.91-26.96-10.41-42.52-10.41ZM816.28,264.09c-11.79,0-21.69-4.23-29.44-12.58-7.75-8.33-11.68-20.41-11.68-35.9s4.03-27.56,11.98-35.9c7.95-8.35,17.96-12.58,29.73-12.58s21.88,4.23,30.03,12.57c8.14,8.35,12.27,20.43,12.27,35.9,0,10.38-1.99,19.33-5.91,26.59-3.93,7.26-9.26,12.79-15.83,16.42h0c-6.57,3.63-13.69,5.47-21.15,5.47ZM816.87,167.63c-11.63,0-21.52,4.18-29.37,12.42-7.86,8.25-11.84,20.21-11.84,35.56s3.89,27.32,11.55,35.56c7.65,8.24,17.44,12.42,29.08,12.42,7.38,0,14.41-1.82,20.91-5.41h0c6.49-3.58,11.75-9.04,15.63-16.22,3.88-7.18,5.85-16.05,5.85-26.35,0-15.34-4.08-27.3-12.13-35.56-8.05-8.24-18.04-12.42-29.67-12.42Z"/>
        <path class="cls-6" d="M1159.16,299.96c-15.66,0-29.75-3.52-41.88-10.47-12.14-6.94-21.77-16.87-28.62-29.5-6.85-12.62-10.32-27.55-10.32-44.38s3.47-31.76,10.32-44.38c6.85-12.63,16.48-22.55,28.62-29.5,12.14-6.95,26.23-10.47,41.88-10.47,20.15,0,37.07,5.11,50.29,15.2,13.21,10.08,22.2,24.43,26.71,42.63l.08.31h-44.9l-.06-.17c-2.33-6.97-6.3-12.52-11.82-16.49-5.52-3.97-12.45-5.98-20.59-5.98-11.63,0-20.96,4.27-27.74,12.7-6.79,8.44-10.24,20.61-10.24,36.16s3.44,27.43,10.24,35.87c6.78,8.43,16.11,12.7,27.74,12.7,16.47,0,27.37-7.46,32.41-22.18l.06-.17h44.91l-.08.31c-4.51,17.62-13.54,31.81-26.85,42.19-13.31,10.38-30.18,15.64-50.14,15.64ZM1159.16,131.76c-15.56,0-29.57,3.5-41.63,10.41-12.06,6.91-21.62,16.77-28.43,29.31h0c-6.81,12.54-10.26,27.39-10.26,44.14s3.45,31.59,10.26,44.14c6.81,12.55,16.37,22.41,28.43,29.31,12.05,6.91,26.06,10.41,41.63,10.41,19.85,0,36.61-5.23,49.84-15.53,13.14-10.24,22.09-24.24,26.59-41.6h-43.9c-5.14,14.83-16.18,22.35-32.82,22.35-11.79,0-21.25-4.34-28.13-12.89-6.87-8.53-10.35-20.7-10.35-36.18s3.48-27.94,10.35-36.48c6.88-8.55,16.34-12.88,28.13-12.88,8.24,0,15.27,2.04,20.88,6.08,5.56,4,9.58,9.57,11.94,16.57h43.9c-4.5-17.94-13.4-32.09-26.45-42.04-13.13-10.02-29.95-15.09-49.99-15.09Z"/>
        <path class="cls-8" d="M1343.24,299.96c-15.66,0-29.9-3.52-42.32-10.47-12.43-6.94-22.26-16.92-29.21-29.65-6.95-12.72-10.47-27.6-10.47-44.23s3.47-31.81,10.32-44.52c6.85-12.72,16.58-22.65,28.92-29.51,12.33-6.85,26.72-10.32,42.76-10.32s29.49,3.37,41.73,10.03c12.24,6.66,21.87,16.24,28.62,28.48,6.75,12.23,10.18,26.47,10.18,42.32,0,5.85-.4,11.21-1.18,15.92l-.04.21h-119.04c1.01,11.52,5.13,20.67,12.25,27.21,7.17,6.59,16.11,9.93,26.59,9.93,15.12,0,26.02-6.58,32.42-19.56l.07-.14h44.9l-.1.32c-4.7,15.66-13.83,28.71-27.14,38.8-13.31,10.08-29.89,15.19-49.26,15.19ZM1343.24,131.76c-15.96,0-30.26,3.45-42.52,10.26-12.25,6.81-21.92,16.67-28.72,29.31-6.81,12.64-10.26,27.54-10.26,44.29s3.5,31.35,10.41,43.99c6.9,12.65,16.66,22.56,29.01,29.46,12.35,6.91,26.5,10.41,42.08,10.41,19.26,0,35.74-5.08,48.96-15.09,13.14-9.95,22.17-22.81,26.87-38.22h-43.91c-6.49,13.07-17.53,19.7-32.8,19.7-10.61,0-19.67-3.39-26.93-10.07-7.27-6.67-11.45-16.03-12.43-27.81l-.02-.27h119.16c.75-4.64,1.14-9.89,1.14-15.63,0-15.76-3.4-29.92-10.11-42.08-6.71-12.15-16.27-21.66-28.42-28.28-12.17-6.61-26.12-9.97-41.49-9.97ZM1381.14,200.57h-77.88l.04-.29c1.57-10.99,5.9-19.7,12.87-25.88,6.97-6.19,15.68-9.33,25.9-9.33,10.79,0,20.04,3.24,27.51,9.62,7.47,6.39,11.36,15.01,11.56,25.62v.25ZM1303.83,200.07h76.79c-.25-10.34-4.08-18.75-11.38-25-7.38-6.3-16.52-9.5-27.19-9.5-10.09,0-18.69,3.1-25.56,9.2-6.82,6.05-11.08,14.56-12.67,25.29Z"/>
      </g>
    </g>
  </g>
</svg>