<?xml version="1.0" encoding="UTF-8"?>
<svg id="Layer_2" data-name="Layer 2" xmlns="http://www.w3.org/2000/svg" xmlns:xlink="http://www.w3.org/1999/xlink" viewBox="0 0 1098.62 231.15">
  <defs>
    <style>
      .cls-1 {
        fill: url(#linear-gradient-2);
      }

      .cls-2 {
        opacity: .55;
      }

      .cls-3 {
        fill: url(#linear-gradient-4);
      }

      .cls-4 {
        fill: url(#linear-gradient-3);
      }

      .cls-5 {
        fill: url(#linear-gradient-5);
      }

      .cls-6 {
        fill: url(#linear-gradient-8);
      }

      .cls-7 {
        fill: url(#linear-gradient-7);
      }

      .cls-8 {
        fill: url(#linear-gradient-9);
      }

      .cls-9 {
        fill: url(#linear-gradient-6);
      }

      .cls-10 {
        fill: url(#linear-gradient);
      }
    </style>
    <linearGradient id="linear-gradient" x1="763.79" y1="162" x2="763.79" y2="0" gradientUnits="userSpaceOnUse">
      <stop offset="0" stop-color="#0f172b"/>
      <stop offset="1" stop-color="#121e38"/>
    </linearGradient>
    <linearGradient id="linear-gradient-2" y1="228.96" y2="114.02" xlink:href="#linear-gradient"/>
    <linearGradient id="linear-gradient-3" x1="65.71" y1="229.11" x2="65.71" y2="70.67" xlink:href="#linear-gradient"/>
    <linearGradient id="linear-gradient-4" x1="221.66" y1="231.15" x2="221.66" y2="101.32" xlink:href="#linear-gradient"/>
    <linearGradient id="linear-gradient-5" x1="347.07" y1="229.11" x2="347.07" y2="101.54" xlink:href="#linear-gradient"/>
    <linearGradient id="linear-gradient-6" x1="473.04" y1="229.11" x2="473.04" y2="70.67" xlink:href="#linear-gradient"/>
    <linearGradient id="linear-gradient-7" x1="630.8" y1="231.15" x2="630.8" y2="101.32" xlink:href="#linear-gradient"/>
    <linearGradient id="linear-gradient-8" x1="893.08" y1="231.15" x2="893.08" y2="101.32" xlink:href="#linear-gradient"/>
    <linearGradient id="linear-gradient-9" x1="1036.08" y1="231.15" x2="1036.08" y2="101.32" xlink:href="#linear-gradient"/>
  </defs>
  <g id="Layer_1-2" data-name="Layer 1">
    <g class="cls-2">
      <g>
        <path class="cls-10" d="M763.79,0c-24.44,0-44.31,19.88-44.31,44.32v73.37c0,24.43,19.87,44.31,44.31,44.31s44.31-19.88,44.31-44.31V44.32c0-24.44-19.88-44.32-44.31-44.32ZM800.78,117.69c0,20.4-16.59,36.99-36.99,36.99s-35.5-15.13-36.9-34.27h28.17c2.03,0,3.66-1.64,3.66-3.66s-1.63-3.66-3.66-3.66h-28.27v-13.51h28.27c2.03,0,3.66-1.64,3.66-3.66s-1.63-3.66-3.66-3.66h-28.27v-13.5h28.27c2.03,0,3.66-1.64,3.66-3.66s-1.63-3.66-3.66-3.66h-28.27v-13.51h28.27c2.03,0,3.66-1.64,3.66-3.66s-1.63-3.66-3.66-3.66h-28.27v-6.29c0-20.4,16.6-37,37-37s36.99,16.6,36.99,37v73.37Z"/>
        <path class="cls-1" d="M767.45,182.13v39.51h28.08c2.02,0,3.66,1.64,3.66,3.66s-1.64,3.66-3.66,3.66h-63.48c-2.03,0-3.66-1.64-3.66-3.66s1.63-3.66,3.66-3.66h28.08v-39.51c-33.89-1.91-60.89-30.09-60.89-64.45,0-2.02,1.64-3.66,3.66-3.66s3.66,1.64,3.66,3.66c0,31.56,25.68,57.23,57.23,57.23s57.23-25.67,57.23-57.23c0-2.02,1.64-3.66,3.66-3.66s3.66,1.64,3.66,3.66c0,34.36-27,62.54-60.89,64.45Z"/>
      </g>
      <g>
        <path class="cls-4" d="M131.43,70.67v158.44h-31.78v-67.42H31.78v67.42H0V70.67h31.78v65.15h67.87v-65.15h31.78Z"/>
        <path class="cls-3" d="M283.28,175.77h-91.93c.76,9.08,3.93,16.19,9.53,21.34,5.6,5.15,12.48,7.72,20.66,7.72,11.8,0,20.2-5.07,25.2-15.21h34.28c-3.63,12.11-10.59,22.06-20.88,29.85-10.29,7.8-22.93,11.69-37.91,11.69-12.11,0-22.97-2.68-32.57-8.06-9.61-5.37-17.1-12.97-22.47-22.81-5.37-9.84-8.06-21.18-8.06-34.05s2.65-24.44,7.94-34.28c5.3-9.84,12.71-17.4,22.25-22.7,9.53-5.3,20.5-7.94,32.91-7.94s22.66,2.57,32.12,7.72c9.46,5.15,16.8,12.45,22.02,21.9,5.22,9.46,7.83,20.32,7.83,32.57,0,4.54-.3,8.63-.91,12.26ZM251.28,154.43c-.15-8.17-3.1-14.72-8.85-19.63-5.75-4.92-12.79-7.38-21.11-7.38-7.87,0-14.49,2.38-19.86,7.15-5.37,4.77-8.67,11.39-9.87,19.86h59.7Z"/>
        <path class="cls-5" d="M359.66,107.22c6.58-3.78,14.11-5.68,22.59-5.68v33.37h-8.4c-9.99,0-17.52,2.35-22.59,7.04-5.07,4.69-7.6,12.86-7.6,24.52v62.65h-31.78v-125.75h31.78v19.52c4.09-6.66,9.42-11.88,16-15.66Z"/>
        <path class="cls-9" d="M550.45,70.67l-58.11,158.44h-38.59l-58.11-158.44h34.05l43.58,125.98,43.36-125.98h33.82Z"/>
        <path class="cls-7" d="M597.21,223.1c-9.69-5.37-17.29-12.97-22.81-22.81-5.53-9.84-8.29-21.18-8.29-34.05s2.84-24.21,8.51-34.05c5.68-9.84,13.43-17.44,23.27-22.81,9.84-5.37,20.81-8.06,32.91-8.06s23.08,2.69,32.91,8.06c9.84,5.37,17.59,12.98,23.27,22.81,5.68,9.84,8.51,21.19,8.51,34.05s-2.91,24.21-8.74,34.05c-5.83,9.84-13.7,17.44-23.61,22.81-9.91,5.37-21,8.06-33.25,8.06s-23-2.68-32.69-8.06ZM646.13,199.26c5.07-2.8,9.11-7,12.14-12.6,3.02-5.6,4.54-12.41,4.54-20.43,0-11.95-3.14-21.15-9.42-27.58-6.28-6.43-13.96-9.65-23.04-9.65s-16.68,3.22-22.81,9.65c-6.13,6.43-9.19,15.63-9.19,27.58s2.99,21.15,8.97,27.58c5.98,6.43,13.51,9.65,22.59,9.65,5.75,0,11.16-1.4,16.23-4.2Z"/>
        <path class="cls-6" d="M840.31,132.07c5.29-9.76,12.63-17.33,22.02-22.7,9.38-5.37,20.12-8.06,32.23-8.06,15.58,0,28.49,3.9,38.7,11.69,10.22,7.8,17.06,18.73,20.54,32.8h-34.28c-1.82-5.45-4.88-9.72-9.19-12.83-4.31-3.1-9.65-4.65-16-4.65-9.08,0-16.27,3.29-21.56,9.87-5.3,6.58-7.94,15.93-7.94,28.03s2.65,21.22,7.94,27.81c5.29,6.58,12.49,9.88,21.56,9.88,12.86,0,21.26-5.75,25.2-17.25h34.28c-3.48,13.62-10.37,24.44-20.66,32.46-10.29,8.02-23.15,12.03-38.59,12.03-12.11,0-22.85-2.68-32.23-8.06-9.38-5.37-16.72-12.94-22.02-22.7-5.3-9.76-7.95-21.15-7.95-34.16s2.65-24.4,7.95-34.16Z"/>
        <path class="cls-8" d="M1097.71,175.77h-91.93c.75,9.08,3.93,16.19,9.53,21.34,5.6,5.15,12.48,7.72,20.66,7.72,11.8,0,20.2-5.07,25.2-15.21h34.28c-3.63,12.11-10.59,22.06-20.88,29.85-10.29,7.8-22.93,11.69-37.91,11.69-12.11,0-22.97-2.68-32.57-8.06-9.61-5.37-17.1-12.97-22.47-22.81-5.37-9.84-8.06-21.18-8.06-34.05s2.65-24.44,7.95-34.28c5.29-9.84,12.71-17.4,22.24-22.7,9.53-5.3,20.5-7.94,32.91-7.94s22.66,2.57,32.12,7.72c9.45,5.15,16.8,12.45,22.02,21.9,5.22,9.46,7.83,20.32,7.83,32.57,0,4.54-.3,8.63-.91,12.26ZM1065.71,154.43c-.15-8.17-3.1-14.72-8.85-19.63-5.75-4.92-12.79-7.38-21.11-7.38-7.87,0-14.49,2.38-19.86,7.15-5.37,4.77-8.66,11.39-9.87,19.86h59.7Z"/>
      </g>
    </g>
  </g>
</svg>