<?xml version="1.0" encoding="UTF-8"?>
<svg id="Layer_2" data-name="Layer 2" xmlns="http://www.w3.org/2000/svg" viewBox="0 0 244.52 244.39">
  <defs>
    <style>
      .cls-1 {
        fill: #fff;
      }
    </style>
  </defs>
  <g id="Layer_2-2" data-name="Layer 2">
    <path class="cls-1" d="M234.2,0c1.81.38,3.32.68,4.93,1.63,4.41,2.6,6.31,7.78,4.97,12.69l-78.3,223.69c-3.82,7.98-14.79,8.59-19.5,1.12l-45.19-101.39c-1.6-3.91-.99-8.39,1.78-11.58l47.53-47.48c10.27-7.22,22.56,4.5,15.83,15.12l-41.63,42.15,30.07,66.97L215.33,29.37,42.74,89.65l-.24.35,29.91,12.46c2.12.83,5.42,5.35,5.42,7.47v63.86c.46.11.46-.17.67-.4.72-.79,1.33-1.9,2.07-2.71,9.58-10.54,25.61,1.67,17.17,14.07-6.98,10.24-16.19,20.11-23.62,30.09-6.84,5.85-17.36,1.61-18.26-7.27l-.02-88.19L5.56,98.4c-2-1.32-3.72-3.2-4.55-5.47-.43-1.17-.44-2.35-1.01-3.4v-1.19c.57-1.05.58-2.23,1.01-3.4,1.04-2.85,3.49-5.26,6.33-6.33C81.53,52.58,155.76,26.67,229.95.65l2.81-.65h1.43Z"/>
  </g>
</svg>