<?xml version="1.0" encoding="UTF-8"?>
<svg id="Layer_2" data-name="Layer 2" xmlns="http://www.w3.org/2000/svg" xmlns:xlink="http://www.w3.org/1999/xlink" viewBox="0 0 1781.81 226.81">
  <defs>
    <style>
      .cls-1 {
        fill: url(#linear-gradient-2);
      }

      .cls-2 {
        fill: url(#linear-gradient-10);
      }

      .cls-3 {
        fill: url(#linear-gradient-4);
      }

      .cls-4 {
        fill: url(#linear-gradient-3);
      }

      .cls-5 {
        fill: url(#linear-gradient-5);
      }

      .cls-6 {
        fill: url(#linear-gradient-8);
      }

      .cls-7 {
        fill: url(#linear-gradient-7);
      }

      .cls-8 {
        fill: url(#linear-gradient-9);
      }

      .cls-9 {
        fill: url(#linear-gradient-6);
      }

      .cls-10 {
        fill: url(#linear-gradient);
      }
    </style>
    <linearGradient id="linear-gradient" x1="1335.7" y1="61.77" x2="1335.7" y2="221.89" gradientTransform="translate(0 222.4) scale(1 -1)" gradientUnits="userSpaceOnUse">
      <stop offset="0" stop-color="#ffc024"/>
      <stop offset="1" stop-color="#ffca55"/>
    </linearGradient>
    <linearGradient id="linear-gradient-2" y1="-4.41" y2="109.2" xlink:href="#linear-gradient"/>
    <linearGradient id="linear-gradient-3" x1="83.59" y1="226.81" x2="83.59" y2="0" gradientTransform="matrix(1,0,0,1,0,0)" xlink:href="#linear-gradient"/>
    <linearGradient id="linear-gradient-4" x1="292.1" y1="226.81" x2="292.1" y2="3.15" gradientTransform="matrix(1,0,0,1,0,0)" xlink:href="#linear-gradient"/>
    <linearGradient id="linear-gradient-5" x1="511.02" y1="224.6" x2="511.02" y2="3.15" gradientTransform="matrix(1,0,0,1,0,0)" xlink:href="#linear-gradient"/>
    <linearGradient id="linear-gradient-6" x1="707.86" y1="226.81" x2="707.86" y2="0" gradientTransform="matrix(1,0,0,1,0,0)" xlink:href="#linear-gradient"/>
    <linearGradient id="linear-gradient-7" x1="923.63" y1="226.18" x2="923.63" y2=".63" gradientTransform="matrix(1,0,0,1,0,0)" xlink:href="#linear-gradient"/>
    <linearGradient id="linear-gradient-8" x1="1151.86" y1="224.6" x2="1151.86" y2="3.15" gradientTransform="matrix(1,0,0,1,0,0)" xlink:href="#linear-gradient"/>
    <linearGradient id="linear-gradient-9" x1="1526.61" y1="224.6" x2="1526.61" y2="3.15" gradientTransform="matrix(1,0,0,1,0,0)" xlink:href="#linear-gradient"/>
    <linearGradient id="linear-gradient-10" x1="1713.99" y1="224.6" x2="1713.99" y2="3.15" gradientTransform="matrix(1,0,0,1,0,0)" xlink:href="#linear-gradient"/>
  </defs>
  <g id="Layer_2-2" data-name="Layer 2">
    <g>
      <g>
        <path class="cls-10" d="M1335.7.51c-24.15,0-43.79,19.65-43.79,43.81v72.52c0,24.15,19.64,43.79,43.79,43.79s43.79-19.65,43.79-43.79V44.32c0-24.15-19.65-43.81-43.79-43.81ZM1372.26,116.83c0,20.16-16.4,36.56-36.56,36.56s-35.09-14.95-36.47-33.87h27.84c2.01,0,3.62-1.62,3.62-3.62s-1.61-3.62-3.62-3.62h-27.94v-13.35h27.94c2.01,0,3.62-1.62,3.62-3.62s-1.61-3.62-3.62-3.62h-27.94v-13.34h27.94c2.01,0,3.62-1.62,3.62-3.62s-1.61-3.62-3.62-3.62h-27.94v-13.35h27.94c2.01,0,3.62-1.62,3.62-3.62s-1.61-3.62-3.62-3.62h-27.94v-6.22c0-20.16,16.41-36.57,36.57-36.57s36.56,16.41,36.56,36.57v72.52h0Z"/>
        <path class="cls-1" d="M1339.32,180.52v39.05h27.76c2,0,3.62,1.62,3.62,3.62s-1.62,3.62-3.62,3.62h-62.74c-2.01,0-3.62-1.62-3.62-3.62s1.61-3.62,3.62-3.62h27.76v-39.05c-33.49-1.88-60.18-29.74-60.18-63.7,0-2,1.62-3.62,3.62-3.62s3.62,1.62,3.62,3.62c0,31.2,25.38,56.56,56.56,56.56s56.56-25.38,56.56-56.56c0-2,1.62-3.62,3.62-3.62s3.62,1.62,3.62,3.62c0,33.96-26.69,61.81-60.18,63.7h0Z"/>
      </g>
      <g>
        <path class="cls-4" d="M42.9,218.92c-12.83-5.25-23.08-13.04-30.76-23.34-7.68-10.3-11.73-22.71-12.14-37.22h57.41c.84,8.2,3.68,14.46,8.52,18.77,4.84,4.31,11.14,6.47,18.93,6.47s14.3-1.84,18.93-5.52c4.62-3.68,6.94-8.78,6.94-15.3,0-5.47-1.84-9.99-5.52-13.56-3.68-3.57-8.2-6.52-13.56-8.83-5.36-2.31-12.99-4.94-22.87-7.89-14.3-4.42-25.98-8.83-35.02-13.25-9.04-4.42-16.83-10.93-23.34-19.56C3.89,91.06.63,79.81.63,65.93c0-20.61,7.46-36.75,22.4-48.42C37.96,5.84,57.41,0,81.39,0s44.06,5.84,58.99,17.51c14.93,11.67,22.92,27.92,23.97,48.74h-58.36c-.42-7.15-3.05-12.78-7.89-16.88-4.84-4.1-11.04-6.15-18.61-6.15-6.52,0-11.78,1.74-15.77,5.21-4,3.47-5.99,8.47-5.99,14.98,0,7.15,3.36,12.73,10.09,16.72,6.73,4,17.24,8.31,31.55,12.93,14.3,4.84,25.92,9.46,34.86,13.88,8.94,4.42,16.66,10.83,23.19,19.24,6.52,8.41,9.78,19.24,9.78,32.49s-3.21,24.08-9.62,34.38c-6.42,10.31-15.72,18.51-27.92,24.61-12.2,6.1-26.61,9.15-43.22,9.15s-30.71-2.63-43.53-7.89Z"/>
        <path class="cls-3" d="M253.3,3.15v132.49c0,13.25,3.26,23.45,9.78,30.6,6.52,7.15,16.09,10.73,28.71,10.73s22.29-3.57,29.02-10.73c6.73-7.15,10.09-17.35,10.09-30.6V3.15h53.94v132.17c0,19.77-4.21,36.49-12.62,50.16-8.41,13.67-19.72,23.97-33.91,30.91-14.2,6.94-30.02,10.41-47.48,10.41s-33.07-3.42-46.84-10.25c-13.78-6.83-24.66-17.14-32.65-30.91-7.99-13.77-11.99-30.54-11.99-50.31V3.15h53.94Z"/>
        <path class="cls-5" d="M587.68,130.12c7.78,9.99,11.67,21.4,11.67,34.23,0,18.51-6.47,33.18-19.4,44-12.93,10.83-30.97,16.25-54.1,16.25h-103.15V3.15h99.68c22.5,0,40.11,5.16,52.84,15.46,12.72,10.31,19.08,24.29,19.08,41.96,0,13.04-3.42,23.87-10.25,32.49-6.84,8.63-15.93,14.62-27.29,17.98,12.83,2.74,23.13,9.1,30.91,19.08ZM476.64,92.74h35.33c8.83,0,15.62-1.94,20.35-5.84,4.73-3.89,7.1-9.62,7.1-17.19s-2.37-13.35-7.1-17.35c-4.73-3.99-11.51-5.99-20.35-5.99h-35.33v46.37ZM537.36,174.92c4.94-4.1,7.41-10.04,7.41-17.82s-2.58-13.88-7.73-18.3c-5.16-4.42-12.25-6.62-21.29-6.62h-39.12v48.9h39.75c9.04,0,16.03-2.05,20.98-6.15Z"/>
        <path class="cls-9" d="M667.17,218.92c-12.83-5.25-23.08-13.04-30.76-23.34-7.68-10.3-11.73-22.71-12.15-37.22h57.41c.84,8.2,3.68,14.46,8.52,18.77,4.83,4.31,11.14,6.47,18.93,6.47s14.3-1.84,18.93-5.52c4.62-3.68,6.94-8.78,6.94-15.3,0-5.47-1.84-9.99-5.52-13.56-3.68-3.57-8.2-6.52-13.56-8.83-5.36-2.31-12.99-4.94-22.87-7.89-14.3-4.42-25.98-8.83-35.01-13.25-9.04-4.42-16.83-10.93-23.34-19.56-6.52-8.62-9.78-19.87-9.78-33.75,0-20.61,7.46-36.75,22.4-48.42,14.93-11.67,34.38-17.51,58.36-17.51s44.05,5.84,58.99,17.51c14.93,11.67,22.92,27.92,23.97,48.74h-58.36c-.42-7.15-3.05-12.78-7.89-16.88-4.84-4.1-11.04-6.15-18.61-6.15-6.52,0-11.78,1.74-15.77,5.21-4,3.47-5.99,8.47-5.99,14.98,0,7.15,3.36,12.73,10.09,16.72,6.73,4,17.24,8.31,31.54,12.93,14.3,4.84,25.92,9.46,34.86,13.88,8.94,4.42,16.67,10.83,23.19,19.24,6.52,8.41,9.78,19.24,9.78,32.49s-3.21,24.08-9.62,34.38c-6.42,10.31-15.72,18.51-27.92,24.61-12.2,6.1-26.61,9.15-43.22,9.15s-30.71-2.63-43.53-7.89Z"/>
        <path class="cls-7" d="M829.62,55.05c9.46-17.14,22.66-30.49,39.59-40.06,16.93-9.57,36.12-14.35,57.57-14.35,26.29,0,48.79,6.94,67.51,20.82,18.72,13.88,31.23,32.81,37.54,56.78h-59.3c-4.42-9.25-10.68-16.29-18.77-21.14-8.1-4.83-17.3-7.26-27.6-7.26-16.62,0-30.08,5.79-40.38,17.35-10.31,11.57-15.46,27.03-15.46,46.37s5.15,34.81,15.46,46.37c10.3,11.57,23.76,17.35,40.38,17.35,10.3,0,19.5-2.42,27.6-7.26,8.09-4.83,14.35-11.88,18.77-21.13h59.3c-6.31,23.97-18.82,42.85-37.54,56.62-18.72,13.78-41.22,20.66-67.51,20.66-21.45,0-40.64-4.78-57.57-14.35-16.93-9.57-30.13-22.87-39.59-39.91-9.46-17.03-14.2-36.48-14.2-58.36s4.73-41.37,14.2-58.52Z"/>
        <path class="cls-6" d="M1177.88,224.6l-46.06-83.59h-12.93v83.59h-53.94V3.15h90.54c17.45,0,32.33,3.05,44.64,9.15,12.3,6.1,21.5,14.46,27.6,25.08,6.1,10.62,9.15,22.45,9.15,35.49,0,14.72-4.16,27.87-12.46,39.43-8.31,11.57-20.56,19.77-36.75,24.61l51.1,87.7h-60.88ZM1118.89,102.84h33.44c9.88,0,17.29-2.42,22.24-7.26,4.94-4.84,7.41-11.67,7.41-20.5s-2.47-15.03-7.41-19.87c-4.94-4.84-12.36-7.26-22.24-7.26h-33.44v54.89Z"/>
      </g>
      <path class="cls-8" d="M1603.27,130.12c7.78,9.99,11.67,21.4,11.67,34.23,0,18.51-6.47,33.18-19.4,44-12.93,10.83-30.97,16.25-54.1,16.25h-103.15V3.15h99.68c22.5,0,40.11,5.16,52.84,15.46,12.72,10.31,19.08,24.29,19.08,41.96,0,13.04-3.42,23.87-10.25,32.49-6.84,8.63-15.93,14.62-27.29,17.98,12.83,2.74,23.13,9.1,30.91,19.08ZM1492.23,92.74h35.33c8.83,0,15.61-1.94,20.35-5.84,4.73-3.89,7.1-9.62,7.1-17.19s-2.37-13.35-7.1-17.35c-4.73-3.99-11.51-5.99-20.35-5.99h-35.33v46.37ZM1552.95,174.92c4.94-4.1,7.41-10.04,7.41-17.82s-2.58-13.88-7.73-18.3c-5.16-4.42-12.25-6.62-21.29-6.62h-39.12v48.9h39.75c9.04,0,16.03-2.05,20.98-6.15Z"/>
      <path class="cls-2" d="M1700.11,46.37v44.79h72.24v41.64h-72.24v48.58h81.7v43.22h-135.64V3.15h135.64v43.22h-81.7Z"/>
    </g>
  </g>
</svg>