<?xml version="1.0" encoding="UTF-8"?>
<svg id="Layer_1" data-name="Layer 1" xmlns="http://www.w3.org/2000/svg" viewBox="0 0 595.44 595.28">
  <defs>
    <style>
      .cls-1 {
        fill: #081284;
      }

      .cls-2 {
        fill: #fff;
      }

      .cls-3 {
        fill: #007efc;
      }
    </style>
  </defs>
  <rect class="cls-2" x="-.43" y="-.52" width="596.3" height="596.3"/>
  <rect class="cls-1" y="0" width="595.45" height="595.45"/>
  <g>
    <line class="cls-3" x1="496.13" y1="185.88" x2="496.07" y2="185.84"/>
    <line class="cls-3" x1="496.13" y1="185.8" x2="496.07" y2="185.84"/>
    <path class="cls-3" d="M496.13,217.13v193.37s0,.02-.03.03c-61.92,36.4-135.69,79.75-197.53,116.08-8.53-5.01-17.13-10.07-25.77-15.14-18.69-10.97-37.58-22.07-56.52-33.21v-193.54s0-.03.02-.04c51.53-30.29,116.8-68.63,168.2-98.86-19.95-11.71-67.4-39.61-87.83-51.6,0,0-.03,0-.04,0-39.81,23.38-100.82,59.24-140.82,82.74v160.19s0,0,0,.02c11.72,6.89,23.73,13.95,35.88,21.09v65.55c-31.07-18.27-62.08-36.49-92.37-54.28-.03-.02-.05-.05-.05-.08v-224.83c62.07-36.48,135.49-79.61,197.34-115.96h.04c59.14,34.74,140.09,82.33,199.39,117.18-68.35,40.17-155.11,91.14-223.23,131.18,0,0-.02,0-.02,0v128.87c8.69,5.11,17.3,10.17,25.75,15.13,0,0,.03,0,.04,0,34.21-20.09,94.68-55.63,133-78.15,4.97-2.92,8.02-8.24,8.02-14.02v-52.97l-80.98,47.59s-.05.05-.05.08v26.03l-56.53,33.21v-91.63s0-.02,0-.03c57.99-34.07,136.25-80.06,194.06-114.02Z"/>
  </g>
</svg>