<?xml version="1.0" encoding="UTF-8"?>
<svg id="Layer_1" data-name="Layer 1" xmlns="http://www.w3.org/2000/svg" viewBox="0 0 595.44 420.77">
  <defs>
    <style>
      .cls-1 {
        fill: #081284;
      }

      .cls-2 {
        letter-spacing: .9em;
      }

      .cls-3 {
        fill: #fff;
      }

      .cls-4, .cls-5 {
        fill: #007efc;
      }

      .cls-6 {
        letter-spacing: .88em;
      }

      .cls-5 {
        font-family: Borna-SemiBold, Borna;
        font-size: 20.31px;
        font-weight: 600;
      }

      .cls-7 {
        letter-spacing: .9em;
      }
    </style>
  </defs>
  <rect class="cls-1" width="595.44" height="420.77"/>
  <g>
    <g>
      <line class="cls-4" x1="345.67" y1="115.62" x2="345.66" y2="115.61"/>
      <line class="cls-4" x1="345.67" y1="115.6" x2="345.66" y2="115.61"/>
      <path class="cls-4" d="M345.67,123.17v46.74s0,0,0,0c-14.96,8.8-32.8,19.27-47.74,28.06-2.06-1.21-4.14-2.43-6.23-3.66-4.52-2.65-9.08-5.33-13.66-8.03v-46.78s0,0,0,0c12.45-7.32,28.23-16.59,40.65-23.89-4.82-2.83-16.29-9.57-21.23-12.47,0,0,0,0,0,0-9.62,5.65-24.37,14.32-34.04,20v38.72s0,0,0,0c2.83,1.67,5.74,3.37,8.67,5.1v15.84c-7.51-4.41-15-8.82-22.32-13.12,0,0-.01-.01-.01-.02v-54.34c15-8.82,32.75-19.24,47.7-28.03h0c14.29,8.4,33.86,19.9,48.19,28.32-16.52,9.71-37.49,22.03-53.95,31.71,0,0,0,0,0,0v31.15c2.1,1.24,4.18,2.46,6.22,3.66,0,0,0,0,0,0,8.27-4.85,22.88-13.45,32.15-18.89,1.2-.71,1.94-1.99,1.94-3.39v-12.8l-19.57,11.5s-.01.01-.01.02v6.29l-13.66,8.03v-22.15s0,0,0,0c14.01-8.23,32.93-19.35,46.9-27.56Z"/>
    </g>
    <g>
      <g>
        <text class="cls-5" transform="translate(150.68 328.38)"><tspan class="cls-7" x="0" y="0">GRAPH</tspan><tspan class="cls-6" x="161.69" y="0">I</tspan><tspan class="cls-2" x="190.31" y="0">CS</tspan></text>
        <g>
          <g>
            <path class="cls-3" d="M176.95,231.24h-25.78v11.41h25.02c6.04,0,10.44,4.31,10.44,10.16s-4.41,10.16-10.44,10.16h-25.02v35.37h12.36v-23.87h13.42c12.94,0,22.24-9.49,22.24-21.66s-9.2-21.57-22.24-21.57Z"/>
            <path class="cls-3" d="M249.32,288.75c-1.63,0-2.49-.76-2.49-2.3v-19.65c0-10.44-8.05-19.36-21.57-19.36-10.26,0-17.93,5.27-20.32,14.38l10.64,2.97c.76-3.83,4.03-7.19,9.68-7.19,6.04,0,9.87,3.83,9.87,9.2v1.25h-13.99c-11.21,0-18.4,6.23-18.4,15.52s7.29,16.01,17.16,16.01c7.95,0,13.23-4.12,14.28-10.92h1.92v2.2c0,4.51,2.87,7.48,7.76,7.48h7v-9.59h-1.53ZM235.14,278.21c0,6.62-4.22,11.6-12.27,11.6-4.7,0-8.05-2.68-8.05-6.52,0-4.22,2.97-6.33,7.86-6.33h12.46v1.24Z"/>
            <path class="cls-3" d="M287.95,258.75v-10.06h-13.99v-11.12h-11.69v11.12h-9.2v10.06h9.01v24.92c0,9.78,5.18,14.67,15.43,14.67h9.68v-10.83h-8.33c-3.26,0-4.89-1.63-4.89-4.98v-23.77h13.99Z"/>
            <path class="cls-3" d="M322.93,268.05l17.07-17.74v-1.63h-13.42l-16.87,18.02h-1.91v-40.26h-11.88v71.88h11.88v-14.57l6.8-7.1,13.51,21.66h12.84v-1.63l-18.02-28.66Z"/>
            <path class="cls-3" d="M389.07,288.75c-1.63,0-2.49-.76-2.49-2.3v-19.65c0-10.44-8.05-19.36-21.57-19.36-10.25,0-17.92,5.27-20.32,14.38l10.64,2.97c.77-3.83,4.03-7.19,9.68-7.19,6.04,0,9.87,3.83,9.87,9.2v1.25h-13.99c-11.21,0-18.41,6.23-18.41,15.52s7.29,16.01,17.16,16.01c7.96,0,13.23-4.12,14.28-10.92h1.91v2.2c0,4.51,2.87,7.48,7.77,7.48h6.99v-9.59h-1.53ZM374.88,278.21c0,6.62-4.22,11.6-12.27,11.6-4.7,0-8.05-2.68-8.05-6.52,0-4.22,2.97-6.33,7.86-6.33h12.46v1.24Z"/>
          </g>
          <polygon class="cls-3" points="444.76 248.69 444.76 250.32 427.6 298.34 416.14 327.73 416.02 327.73 416.02 328.15 396.57 328.15 396.57 315.76 407.23 315.76 414.18 298.34 408.33 298.34 392.04 250.32 392.04 248.69 404.31 248.69 417.06 287.51 419.07 287.51 432.2 248.69 444.76 248.69"/>
        </g>
      </g>
      <rect class="cls-4" x="151.14" y="246.21" width="12.54" height="12.54"/>
    </g>
  </g>
</svg>