<?xml version="1.0" encoding="UTF-8"?>
<svg id="Layer_1" data-name="Layer 1" xmlns="http://www.w3.org/2000/svg" viewBox="0 0 1032.82 422.04">
  <defs>
    <style>
      .cls-1 {
        fill: #081284;
      }

      .cls-2, .cls-3, .cls-4 {
        fill: #fff;
      }

      .cls-5 {
        fill: none;
      }

      .cls-6 {
        letter-spacing: .9em;
      }

      .cls-7 {
        letter-spacing: .9em;
      }

      .cls-8 {
        fill: #231f20;
      }

      .cls-9 {
        fill: #007efc;
      }

      .cls-3 {
        font-family: Borna-SemiBold, Borna;
        font-size: 34.05px;
        font-weight: 600;
        opacity: .51;
      }

      .cls-4 {
        opacity: .4;
      }

      .cls-10 {
        letter-spacing: .89em;
      }
    </style>
  </defs>
  <rect class="cls-1" width="1032.82" height="422.04"/>
  <polyline class="cls-5" points="169.46 189.98 169.47 190 169.47 189.98"/>
  <g>
    <path class="cls-8" d="M356.96,179.21c-.23.13-.46.27-.69.42v-.02s.69-.4.69-.4Z"/>
    <polyline class="cls-5" points="366.21 197.03 366.22 197.04 366.22 197.03"/>
  </g>
  <g>
    <g>
      <line class="cls-9" x1="356.42" y1="151" x2="356.39" y2="150.98"/>
      <line class="cls-9" x1="356.42" y1="150.96" x2="356.39" y2="150.98"/>
      <path class="cls-9" d="M356.42,167.78v103.85s0,0-.01.01c-33.25,19.55-72.87,42.83-106.08,62.34-4.58-2.69-9.2-5.41-13.84-8.13-10.04-5.89-20.18-11.85-30.35-17.83v-103.94s0-.01,0-.02c27.67-16.27,62.73-36.86,90.33-53.09-10.71-6.29-36.2-21.27-47.17-27.71,0,0-.01,0-.02,0-21.38,12.56-54.14,31.82-75.63,44.43v86.03s0,0,0,0c6.3,3.7,12.74,7.49,19.27,11.33v35.2c-16.68-9.81-33.34-19.6-49.6-29.15-.01,0-.02-.02-.02-.04v-120.74c33.33-19.59,72.76-42.75,105.98-62.27h.02c31.76,18.65,75.23,44.21,107.08,62.93-36.71,21.57-83.3,48.94-119.88,70.45,0,0,0,0,0,0v69.21c4.67,2.74,9.29,5.46,13.83,8.13,0,0,.01,0,.02,0,18.37-10.79,50.85-29.87,71.43-41.97,2.67-1.57,4.31-4.43,4.31-7.53v-28.45l-43.49,25.56s-.02.02-.02.04v13.98l-30.36,17.84v-49.21s0,0,0-.01c31.14-18.29,73.17-42.99,104.22-61.23Z"/>
    </g>
    <g>
      <g>
        <g>
          <path class="cls-2" d="M440.57,128.77h-43.22v19.13h41.94c10.12,0,17.51,7.22,17.51,17.02s-7.39,17.03-17.51,17.03h-41.94v59.29h20.73v-40.01h22.49c21.7,0,37.28-15.91,37.28-36.32s-15.42-36.15-37.28-36.15Z"/>
          <path class="cls-2" d="M561.89,225.17c-2.73,0-4.18-1.28-4.18-3.85v-32.94c0-17.51-13.5-32.46-36.15-32.46-17.2,0-30.05,8.84-34.07,24.1l17.84,4.98c1.28-6.43,6.75-12.05,16.23-12.05,10.12,0,16.55,6.43,16.55,15.42v2.09h-23.46c-18.8,0-30.85,10.44-30.85,26.02s12.22,26.83,28.76,26.83c13.33,0,22.17-6.9,23.94-18.31h3.22v3.69c0,7.55,4.82,12.54,13.01,12.54h11.73v-16.07h-2.57ZM538.11,207.5c0,11.09-7.07,19.45-20.57,19.45-7.87,0-13.5-4.5-13.5-10.93,0-7.07,4.98-10.61,13.18-10.61h20.89v2.08Z"/>
          <path class="cls-2" d="M626.64,174.88v-16.87h-23.46v-18.64h-19.6v18.64h-15.42v16.87h15.1v41.77c0,16.39,8.68,24.59,25.87,24.59h16.22v-18.16h-13.97c-5.47,0-8.2-2.73-8.2-8.36v-39.85h23.46Z"/>
          <path class="cls-2" d="M685.29,190.47l28.61-29.73v-2.72h-22.5l-28.28,30.21h-3.21v-67.49h-19.92v120.51h19.92v-24.42l11.4-11.9,22.66,36.32h21.53v-2.73l-30.21-48.04Z"/>
          <path class="cls-2" d="M796.16,225.17c-2.73,0-4.18-1.28-4.18-3.85v-32.94c0-17.51-13.5-32.46-36.15-32.46-17.19,0-30.04,8.84-34.06,24.1l17.83,4.98c1.29-6.43,6.75-12.05,16.23-12.05,10.12,0,16.55,6.43,16.55,15.42v2.09h-23.45c-18.8,0-30.86,10.44-30.86,26.02s12.22,26.83,28.76,26.83c13.34,0,22.17-6.9,23.95-18.31h3.21v3.69c0,7.55,4.82,12.54,13.02,12.54h11.72v-16.07h-2.57ZM772.37,207.5c0,11.09-7.07,19.45-20.56,19.45-7.87,0-13.5-4.5-13.5-10.93,0-7.07,4.98-10.61,13.18-10.61h20.88v2.08Z"/>
        </g>
        <text class="cls-3" transform="translate(396.52 291.61)"><tspan class="cls-7" x="0" y="0">GRAPH</tspan><tspan class="cls-10" x="271.06" y="0">I</tspan><tspan class="cls-6" x="319.03" y="0">CS</tspan></text>
        <polygon class="cls-2" points="889.52 158.01 889.52 160.74 860.75 241.24 841.55 290.53 841.35 290.53 841.35 291.22 808.74 291.22 808.74 270.46 826.61 270.46 838.26 241.24 828.46 241.24 801.14 160.74 801.14 158.01 821.71 158.01 843.08 223.09 846.45 223.09 868.47 158.01 889.52 158.01"/>
      </g>
      <rect class="cls-4" x="397.3" y="153.86" width="21.03" height="21.03"/>
    </g>
  </g>
</svg>