<?xml version="1.0" encoding="UTF-8"?>
<svg id="Layer_1" data-name="Layer 1" xmlns="http://www.w3.org/2000/svg" viewBox="0 0 611.83 260.66">
  <defs>
    <style>
      .cls-1 {
        fill: #0066e0;
        font-family: Borna-SemiBold, Borna;
        font-size: 32.2px;
        font-weight: 600;
      }

      .cls-2 {
        fill: none;
      }

      .cls-3 {
        letter-spacing: .9em;
      }

      .cls-4 {
        fill: #231f20;
      }

      .cls-5 {
        fill: #007efc;
      }

      .cls-6 {
        letter-spacing: .9em;
      }

      .cls-7 {
        fill: #1f3c88;
      }

      .cls-8 {
        letter-spacing: .88em;
      }
    </style>
  </defs>
  <g>
    <path class="cls-4" d="M77.65,63.91c-.49.28-.98.58-1.47.9l-.02-.04,1.5-.85Z"/>
    <polyline class="cls-2" points="97.36 101.86 97.38 101.88 97.38 101.86"/>
  </g>
  <polyline class="cls-2" points="86.76 101.86 86.78 101.88 86.78 101.86"/>
  <g>
    <g>
      <text class="cls-1" transform="translate(72.81 207.08)"><tspan class="cls-6" x="0" y="0">GRAPH</tspan><tspan class="cls-8" x="256.34" y="0">I</tspan><tspan class="cls-3" x="301.71" y="0">CS</tspan></text>
      <g>
        <g>
          <path class="cls-7" d="M114.46,53.08h-40.87v18.09h39.66c9.57,0,16.56,6.83,16.56,16.1s-6.99,16.11-16.56,16.11h-39.66v56.07h19.6v-37.84h21.27c20.52,0,35.25-15.05,35.25-34.34s-14.59-34.19-35.25-34.19Z"/>
          <path class="cls-7" d="M229.19,144.25c-2.59,0-3.95-1.21-3.95-3.64v-31.15c0-16.56-12.76-30.7-34.19-30.7-16.26,0-28.42,8.36-32.22,22.79l16.87,4.71c1.21-6.08,6.38-11.4,15.35-11.4,9.57,0,15.65,6.08,15.65,14.59v1.98h-22.19c-17.78,0-29.17,9.87-29.17,24.61s11.55,25.38,27.2,25.38c12.61,0,20.97-6.53,22.64-17.32h3.04v3.49c0,7.14,4.56,11.85,12.3,11.85h11.09v-15.2h-2.43ZM206.7,127.54c0,10.49-6.68,18.39-19.45,18.39-7.44,0-12.76-4.25-12.76-10.33,0-6.68,4.71-10.03,12.46-10.03h19.76v1.97Z"/>
          <path class="cls-7" d="M290.43,96.7v-15.95h-22.19v-17.63h-18.54v17.63h-14.59v15.95h14.28v39.51c0,15.5,8.21,23.25,24.47,23.25h15.34v-17.17h-13.21c-5.17,0-7.76-2.59-7.76-7.9v-37.68h22.19Z"/>
          <path class="cls-7" d="M345.89,111.44l27.06-28.12v-2.58h-21.28l-26.74,28.57h-3.03v-63.82h-18.84v113.96h18.84v-23.09l10.78-11.25,21.43,34.34h20.36v-2.59l-28.57-45.43Z"/>
          <path class="cls-7" d="M450.74,144.25c-2.59,0-3.95-1.21-3.95-3.64v-31.15c0-16.56-12.76-30.7-34.19-30.7-16.26,0-28.41,8.36-32.21,22.79l16.86,4.71c1.22-6.08,6.38-11.4,15.35-11.4,9.57,0,15.65,6.08,15.65,14.59v1.98h-22.18c-17.78,0-29.18,9.87-29.18,24.61s11.55,25.38,27.2,25.38c12.62,0,20.97-6.53,22.65-17.32h3.03v3.49c0,7.14,4.56,11.85,12.31,11.85h11.08v-15.2h-2.43ZM428.25,127.54c0,10.49-6.68,18.39-19.45,18.39-7.44,0-12.76-4.25-12.76-10.33,0-6.68,4.71-10.03,12.46-10.03h19.75v1.97Z"/>
        </g>
        <polygon class="cls-7" points="539.03 80.74 539.03 83.32 511.82 159.45 493.67 206.06 493.48 206.06 493.48 206.72 462.63 206.72 462.63 187.08 479.54 187.08 490.55 159.45 481.28 159.45 455.45 83.32 455.45 80.74 474.9 80.74 495.11 142.28 498.3 142.28 519.12 80.74 539.03 80.74"/>
      </g>
    </g>
    <rect class="cls-5" x="73.54" y="76.82" width="19.89" height="19.89"/>
  </g>
</svg>